<?xml version="1.0" encoding="UTF-8" standalone="no"?><!DOCTYPE svg PUBLIC "-//W3C//DTD SVG 1.1//EN" "http://www.w3.org/Graphics/SVG/1.1/DTD/svg11.dtd"><svg width="100%" height="100%" viewBox="0 0 200 200" version="1.1" xmlns="http://www.w3.org/2000/svg" xmlns:xlink="http://www.w3.org/1999/xlink" xml:space="preserve" xmlns:serif="http://www.serif.com/" style="fill-rule:evenodd;clip-rule:evenodd;stroke-linecap:round;stroke-linejoin:round;stroke-miterlimit:1.5;"><rect id="ArtBoard1" x="0" y="0" width="200" height="200" style="fill:none;"/><g id="ArtBoard11" serif:id="ArtBoard1"><g><path d="M148.241,112.788l-0.062,0l0.031,0.054l-0.031,0.054l0.062,0l10.849,18.79l10.848,-18.79l0.062,0l-0.031,-0.053l0.031,-0.055l-0.063,0l-10.848,-18.789l-10.848,18.789Z" style="fill:#0a2e36;stroke:#0a2e36;stroke-width:4.17px;"/><path d="M105.529,40.134l34.014,58.974l11.382,-19.529l-22.793,-39.517l-22.603,0.072Z" style="fill:#0a2e36;stroke:#0a2e36;stroke-width:4.17px;"/><path d="M105.529,184.927l34.014,-58.974l11.382,19.529l-22.793,39.518l-22.603,-0.073Z" style="fill:#0a2e36;stroke:#0a2e36;stroke-width:4.17px;"/></g><g><path d="M51.759,87.727l0.062,-0l-0.031,0.053l0.031,0.055l-0.062,-0l-10.849,18.789l-10.848,-18.789l-0.062,-0l0.031,-0.054l-0.031,-0.054l0.063,-0l10.848,-18.79l10.848,18.79Z" style="fill:#0a2e36;stroke:#0a2e36;stroke-width:4.17px;"/><path d="M94.471,15.073l-34.014,58.974l-11.382,-19.529l22.793,-39.518l22.603,0.073Z" style="fill:#0a2e36;stroke:#0a2e36;stroke-width:4.17px;"/><path d="M94.471,159.866l-34.014,-58.974l-11.382,19.529l22.793,39.517l22.603,-0.072Z" style="fill:#0a2e36;stroke:#0a2e36;stroke-width:4.17px;"/></g></g></svg>